<svg width="27" height="21" viewBox="0 0 27 21" fill="none" xmlns="http://www.w3.org/2000/svg">
<path d="M24.9163 8.25767C24.9167 8.25071 24.9173 8.24376 24.9173 8.2368V3.21286C24.9173 1.44113 23.6895 0 22.1808 0H4.25151C2.74246 0 1.51501 1.44113 1.51501 3.21286V8.2368C1.51501 8.24409 1.51567 8.25104 1.516 8.25767C0.61008 8.78729 0 9.7707 0 10.8942V20.2671C0 20.4765 0.169584 20.6457 0.37858 20.6457H3.27975C3.48908 20.6457 3.65833 20.4761 3.65833 20.2671V17.616H22.773V20.2671C22.773 20.4765 22.9426 20.6457 23.1516 20.6457H26.0528C26.2621 20.6457 26.4314 20.4761 26.4314 20.2671L26.4324 10.8942C26.4324 9.7707 25.8223 8.78728 24.9164 8.25767H24.9163ZM5.30813 6.54359C5.30813 6.26106 5.55952 6.03119 5.86855 6.03119H10.9408C11.2498 6.03119 11.5012 6.26106 11.5012 6.54359V7.88043C11.5012 8.16328 11.2499 8.39283 10.9408 8.39283L5.86855 8.3925C5.55952 8.3925 5.30813 8.16296 5.30813 7.88009V6.54359ZM14.932 6.54359C14.932 6.26106 15.1834 6.03119 15.4925 6.03119H20.5647C20.8738 6.03119 21.1252 6.26106 21.1252 6.54359V7.88043C21.1252 8.16328 20.8738 8.39283 20.5647 8.39283H15.4925C15.1834 8.39283 14.932 8.16329 14.932 7.88043V6.54359ZM25.6752 14.4522H0.758176V10.8939C0.758176 9.62859 1.7873 8.59921 3.05282 8.59921H4.78275C5.02057 8.93176 5.41869 9.15003 5.86852 9.15003H10.9408C11.3906 9.15003 11.7884 8.93176 12.0266 8.59921H14.407C14.6448 8.93176 15.0429 9.15003 15.4928 9.15003H20.565C21.0148 9.15003 21.4126 8.93176 21.6508 8.59921H23.3807C24.646 8.59921 25.6754 9.62833 25.6754 10.8939L25.6752 14.4522Z" fill="#41484D"/>
</svg>
