<svg width="24" height="24" viewBox="0 0 24 24" fill="none" xmlns="http://www.w3.org/2000/svg">
<path d="M5.57518 15.9773H4.07322C3.86605 15.9773 3.69824 16.1453 3.69824 16.3523C3.69824 16.5593 3.86605 16.7272 4.07322 16.7272H5.57518C5.78217 16.7272 5.95015 16.5593 5.95015 16.3523C5.95033 16.1453 5.78235 15.9773 5.57518 15.9773Z" fill="#41484D"/>
<path d="M13.3471 15.9773H11.8452C11.638 15.9773 11.4702 16.1453 11.4702 16.3523C11.4702 16.5593 11.638 16.7272 11.8452 16.7272H13.3471C13.5543 16.7272 13.7221 16.5593 13.7221 16.3523C13.7221 16.1453 13.5543 15.9773 13.3471 15.9773Z" fill="#41484D"/>
<path d="M5.57518 19.7161H4.07322C3.86605 19.7161 3.69824 19.884 3.69824 20.091C3.69824 20.298 3.86605 20.466 4.07322 20.466H5.57518C5.78217 20.466 5.95015 20.298 5.95015 20.091C5.95033 19.884 5.78235 19.7161 5.57518 19.7161Z" fill="#41484D"/>
<path d="M13.3471 19.7161H11.8452C11.638 19.7161 11.4702 19.884 11.4702 20.091C11.4702 20.298 11.638 20.466 11.8452 20.466H13.3471C13.5543 20.466 13.7221 20.298 13.7221 20.091C13.7221 19.884 13.5543 19.7161 13.3471 19.7161Z" fill="#41484D"/>
<path d="M17.2252 12.4744H0.387405C0.173505 12.4744 0 12.6477 0 12.8618V13.4821C0 13.696 0.173505 13.8695 0.387405 13.8695H0.576617V21.9671C0.576617 22.3795 0.910332 22.717 1.32658 22.717H2.31648V23.3133C2.31648 23.6921 2.62016 23.9995 2.99891 23.9995C3.2501 23.9995 3.47884 23.8645 3.59883 23.6432L4.10881 22.717H13.5027L14.0126 23.6432C14.1326 23.8644 14.3614 23.9995 14.6126 23.9995C14.9913 23.9995 15.2988 23.6921 15.2988 23.3133V22.717H16.2851C16.7013 22.717 17.035 22.3795 17.035 21.9671L17.0352 13.8695H17.2251C17.439 13.8695 17.6125 13.696 17.6125 13.4821V12.8618C17.6127 12.6477 17.4392 12.4744 17.2253 12.4744H17.2252ZM8.43108 21.0966C8.43108 21.3058 8.26155 21.4753 8.05231 21.4753H1.98022C1.77097 21.4753 1.60144 21.3058 1.60144 21.0966V18.9389C1.60144 18.7297 1.77097 18.5601 1.98022 18.5601H8.05231C8.26155 18.5601 8.43108 18.7297 8.43108 18.9389V21.0966ZM8.43108 17.4314C8.43108 17.6406 8.26155 17.8102 8.05231 17.8102H1.98022C1.77097 17.8102 1.60144 17.6406 1.60144 17.4314V15.2737C1.60144 15.0645 1.77097 14.895 1.98022 14.895H8.05231C8.26155 14.895 8.43108 15.0645 8.43108 15.2737V17.4314ZM16.0107 21.0966C16.0107 21.3058 15.8412 21.4753 15.6319 21.4753H9.55983C9.35059 21.4753 9.18106 21.3058 9.18106 21.0966V18.9389C9.18106 18.7297 9.35059 18.5601 9.55983 18.5601H15.6319C15.8412 18.5601 16.0107 18.7297 16.0107 18.9389V21.0966ZM16.0107 17.4314C16.0107 17.6406 15.8412 17.8102 15.6319 17.8102H9.55983C9.35059 17.8102 9.18106 17.6406 9.18106 17.4314V15.2737C9.18106 15.0645 9.35059 14.895 9.55983 14.895H15.6319C15.8412 14.895 16.0107 15.0645 16.0107 15.2737V17.4314Z" fill="#41484D"/>
<path d="M3.33234 11.1186H10.4196C10.9971 11.1186 11.4658 10.6499 11.4658 10.0724V1.04621C11.4658 0.468743 10.9971 0 10.4196 0H3.33234C2.75488 0 2.28613 0.468699 2.28613 1.04621V10.0724C2.28613 10.6498 2.75483 11.1186 3.33234 11.1186ZM3.41106 1.12497H6.13946L3.41106 3.85336V1.12497ZM3.41106 4.63183L6.91965 1.12497H7.63784L3.41106 5.35174V4.63183ZM3.41106 5.92337L8.20943 1.12501H10.341V9.99338H3.41106V5.92337Z" fill="#41484D"/>
<path d="M24 4.27743C24 3.8101 23.6195 3.42957 23.1481 3.42957C22.6807 3.42957 22.3002 3.81007 22.3002 4.27743C22.3002 4.67209 22.5683 4.99977 22.9293 5.09713V6.33497C22.9293 6.62156 22.6962 6.85463 22.4096 6.85463H21.1338V5.03915C21.1338 5.02689 21.1287 5.01636 21.128 5.00427C21.1252 4.95024 21.1161 4.89827 21.1019 4.84803C21.0957 4.82611 21.0902 4.80487 21.082 4.78398C21.0606 4.72908 21.0332 4.67764 20.9995 4.63016C20.9878 4.61376 20.9747 4.5996 20.9617 4.58423C20.9267 4.5428 20.8878 4.50499 20.8441 4.47237C20.8359 4.46615 20.829 4.45855 20.8203 4.45286C20.7649 4.41505 20.7027 4.38794 20.6375 4.36688C20.632 4.36516 20.6275 4.36119 20.6218 4.35946C20.6221 4.36032 20.6223 4.36136 20.6226 4.36222C20.5583 4.34306 20.4913 4.32959 20.4207 4.32959C20.0281 4.32959 19.7099 4.64777 19.7099 5.04035V6.85429L18.432 6.85464C18.1454 6.85464 17.9124 6.62157 17.9124 6.33498V5.0963C18.2746 4.99823 18.5416 4.67108 18.5416 4.2773C18.5416 3.80997 18.1611 3.42944 17.6897 3.42944C17.2223 3.42944 16.8418 3.80994 16.8418 4.2773C16.8418 4.67213 17.1101 4.99982 17.4712 5.09718V6.33502C17.4712 6.86502 17.9021 7.29593 18.432 7.29593H19.71V21.1063H19.7088V21.5148H19.3532C19.0202 21.5148 18.7503 21.7846 18.7503 22.1177V22.5044H18.7491V22.739H18.385C18.052 22.739 17.7821 23.0088 17.7821 23.3419V23.9632H17.7825V23.9634H23.0595V23.9632H23.0598V23.3419C23.0598 23.009 22.79 22.739 22.4569 22.739H22.0928V22.1168C22.0928 21.7843 21.8233 21.515 21.4908 21.515L21.4884 21.5148H21.1336V7.29606H22.4095C22.9395 7.29606 23.3702 6.86515 23.3702 6.33515V5.09665C23.7327 4.99876 23.9998 4.6716 23.9998 4.27765L24 4.27743Z" fill="#41484D"/>
</svg>
