<svg width="25" height="22" viewBox="0 0 25 22" fill="none" xmlns="http://www.w3.org/2000/svg">
<path d="M24.9998 16.7422V19.702C24.9998 20.4285 24.4078 21.0205 23.6813 21.0205H1.31845C0.591955 21.0205 0 20.4285 0 19.702V16.7422C0.0956706 16.793 0.194331 16.8319 0.298973 16.8618C0.394644 16.8887 0.496295 16.9066 0.597946 16.9156C0.642792 16.9186 0.687636 16.9216 0.732481 16.9216H4.85829C5.16025 16.9216 5.40542 17.1787 5.40542 17.4986H6.30231C6.30231 17.1817 6.54747 16.9216 6.84944 16.9216H11.5014C11.8034 16.9216 12.0486 17.1787 12.0486 17.4986H12.9455C12.9455 17.1817 13.1906 16.9216 13.4926 16.9216H18.1446C18.4465 16.9216 18.6917 17.1787 18.6917 17.4986H19.5886C19.5886 17.1817 19.8338 16.9216 20.1357 16.9216H24.2615C24.3064 16.9216 24.3512 16.9186 24.3961 16.9156C24.4977 16.9066 24.5994 16.8887 24.6951 16.8618C24.8027 16.8319 24.9043 16.79 25 16.7422H24.9998Z" fill="#41484D"/>
<path d="M24.9458 15.0803L24.8711 14.8112L20.9635 0.424537C20.8948 0.173399 20.6735 0 20.4254 0H17.4955C17.3848 0 17.2922 0.0986609 17.2922 0.22124H16.3953C16.3953 0.0986609 16.3056 0 16.1919 0H13.1514C13.0378 0 12.9481 0.0986609 12.9481 0.22124H12.0512C12.0512 0.0986609 11.9615 0 11.8479 0H8.8044C8.69079 0 8.6011 0.0986609 8.6011 0.22124H7.7042C7.7042 0.0986609 7.61451 0 7.50089 0H4.57097C4.32282 0 4.10159 0.176395 4.03282 0.424537L0.125249 14.8112L0.0534961 15.0803C-0.00928567 15.3135 0.0355576 15.5556 0.182056 15.744C0.217932 15.7889 0.256799 15.8307 0.301644 15.8666C0.388343 15.9384 0.489995 15.9862 0.600617 16.0071C0.645463 16.0161 0.690307 16.0221 0.735152 16.0221H4.86096C5.24663 16.0221 5.59642 16.1775 5.85654 16.4287C6.11664 16.1775 6.46642 16.0221 6.85211 16.0221H11.5041C11.8898 16.0221 12.2396 16.1775 12.4997 16.4287C12.7598 16.1775 13.1096 16.0221 13.4953 16.0221H18.1473C18.5329 16.0221 18.8857 16.1775 19.1428 16.4287C19.4029 16.1775 19.7527 16.0221 20.1384 16.0221H24.2642C24.3091 16.0221 24.3569 16.0191 24.3987 16.0071C24.5094 15.9862 24.611 15.9384 24.6977 15.8666C24.7426 15.8307 24.7814 15.7889 24.8173 15.744C24.9638 15.5557 25.0087 15.3135 24.9459 15.0803H24.9458ZM18.5386 12.3806C18.5386 12.6108 18.3503 12.7991 18.1201 12.7991C17.8899 12.7991 17.7015 12.6108 17.7015 12.3806C17.7015 12.1504 17.8899 11.962 18.1201 11.962C18.3503 11.962 18.5386 12.1504 18.5386 12.3806ZM17.552 7.50733C17.7822 7.50733 17.9706 7.69568 17.9706 7.92588C17.9706 8.15609 17.7822 8.34444 17.552 8.34444C17.3218 8.34444 17.1335 8.15609 17.1335 7.92588C17.1335 7.69568 17.3218 7.50733 17.552 7.50733ZM17.0139 3.23205C17.2441 3.23205 17.4324 3.4204 17.4324 3.65061C17.4324 3.88081 17.2441 4.06917 17.0139 4.06917C16.7837 4.06917 16.5953 3.88081 16.5953 3.65061C16.5953 3.41741 16.7837 3.23205 17.0139 3.23205ZM12.4845 3.23205C12.7147 3.23205 12.903 3.4204 12.903 3.65061C12.903 3.88081 12.7147 4.06917 12.4845 4.06917C12.2543 4.06917 12.0659 3.88081 12.0659 3.65061C12.0659 3.41741 12.2543 3.23205 12.4845 3.23205ZM12.4845 7.50733C12.7147 7.50733 12.903 7.69568 12.903 7.92588C12.903 8.15609 12.7147 8.34444 12.4845 8.34444C12.2543 8.34444 12.0659 8.15609 12.0659 7.92588C12.0659 7.69568 12.2543 7.50733 12.4845 7.50733ZM12.4845 11.962C12.7147 11.962 12.903 12.1503 12.903 12.3805C12.903 12.6107 12.7147 12.7991 12.4845 12.7991C12.2543 12.7991 12.0659 12.6107 12.0659 12.3805C12.0659 12.1503 12.2543 11.962 12.4845 11.962ZM7.98493 3.23189C8.21514 3.23189 8.40349 3.42024 8.40349 3.65045C8.40349 3.88065 8.21514 4.069 7.98493 4.069C7.75473 4.069 7.56638 3.88065 7.56638 3.65045C7.56638 3.41725 7.75174 3.23189 7.98493 3.23189ZM7.44678 7.50716C7.67699 7.50716 7.86534 7.69551 7.86534 7.92572C7.86534 8.15592 7.67699 8.34428 7.44678 8.34428C7.21658 8.34428 7.02823 8.15592 7.02823 7.92572C7.02823 7.69551 7.21359 7.50716 7.44678 7.50716ZM6.87872 11.9618C7.10892 11.9618 7.29727 12.1502 7.29727 12.3804C7.29727 12.6106 7.10892 12.7989 6.87872 12.7989C6.64851 12.7989 6.46016 12.6106 6.46016 12.3804C6.46016 12.1502 6.64552 11.9618 6.87872 11.9618Z" fill="#41484D"/>
</svg>
