<svg width="26" height="20" viewBox="0 0 26 20" fill="none" xmlns="http://www.w3.org/2000/svg">
<path fill-rule="evenodd" clip-rule="evenodd" d="M22.1914 6.43003C19.2686 7.43207 15.5109 7.68266 12.5045 7.68266C7.16004 12.8602 13.1726 16.4512 10.5003 19.2068C9.33115 20.4594 7.07652 19.9584 7.32696 18.5386C7.49392 17.286 8.99712 17.2025 9.58173 17.9541C10.2499 13.9457 4.98893 11.2736 7.99505 7.34867C6.32488 7.09809 4.90519 6.84765 3.81964 6.43011C1.56487 10.522 5.74039 13.5284 3.48558 15.8665C2.31644 17.1191 -0.0218157 16.6181 0.228768 15.1984C0.395725 13.9458 1.98241 13.8623 2.48354 14.6139C3.15167 10.6054 -2.10926 7.93339 0.980334 3.92494C1.39788 4.76002 2.6505 5.51162 4.48773 6.01264C9.24786 7.43222 16.7635 7.43222 21.5233 6.01264C23.2769 5.51162 24.5295 4.76002 25.0307 3.92494C28.1205 7.93339 22.7759 10.6054 23.444 14.6139C24.0285 13.8623 25.5317 13.9458 25.7822 15.1984C25.9492 16.618 23.6945 17.1191 22.5254 15.8665C20.1872 13.5283 24.3627 10.522 22.1914 6.43011L22.1914 6.43003ZM21.2728 1.00208C16.68 -0.334025 9.24745 -0.334025 4.65465 1.00208C0.31228 2.33818 0.31228 4.17541 4.65465 5.42792C9.24745 6.76402 16.68 6.76402 21.2728 5.42792C25.6152 4.1753 25.6152 2.33807 21.2728 1.00208Z" fill="#41484D"/>
</svg>
