<svg width="29" height="29" viewBox="0 0 29 29" fill="none" xmlns="http://www.w3.org/2000/svg">
<path d="M10.3931 28.9998H18.6058V19.9373H10.3931V28.9998ZM11.2427 21.2117C11.2427 20.9771 11.4328 20.7869 11.6675 20.7869H17.3318C17.4445 20.7869 17.5525 20.8316 17.6322 20.9113C17.7119 20.991 17.7566 21.099 17.7566 21.2117V26.876C17.7566 26.9887 17.7119 27.0967 17.6322 27.1764C17.5525 27.2561 17.4445 27.3008 17.3318 27.3008H11.6675C11.4328 27.3008 11.2427 27.1107 11.2427 26.876V21.2117Z" fill="#41484D"/>
<path d="M16.9063 21.6365H12.0918V26.4509H16.9063V21.6365ZM15.3487 23.3357H13.6495C13.4148 23.3357 13.2247 23.1455 13.2247 22.9109C13.2247 22.6762 13.4148 22.4861 13.6495 22.4861H15.3487C15.5833 22.4861 15.7735 22.6762 15.7735 22.9109C15.7735 23.1455 15.5833 23.3357 15.3487 23.3357Z" fill="#41484D"/>
<path d="M10.3931 17.6716H18.6058V19.0877H10.3931V17.6716Z" fill="#41484D"/>
<path d="M1.04736 28.5752C1.04736 28.8098 1.23752 29 1.47217 29H4.8706V17.6719H1.04737L1.04736 28.5752ZM3.17141 21.7783C3.17141 21.5437 3.36156 21.3535 3.59621 21.3535C3.83086 21.3535 4.02101 21.5437 4.02101 21.7783V24.0439C4.02101 24.2786 3.83086 24.4688 3.59621 24.4688C3.36156 24.4688 3.17141 24.2786 3.17141 24.0439V21.7783Z" fill="#41484D"/>
<path d="M5.72021 28.9998H9.54345V17.6716H5.72021V28.9998ZM6.56981 21.7782C6.56981 21.5436 6.75996 21.3534 6.99461 21.3534C7.22927 21.3534 7.41942 21.5436 7.41942 21.7782V24.0439C7.41942 24.2785 7.22927 24.4687 6.99461 24.4687C6.75996 24.4687 6.56981 24.2785 6.56981 24.0439V21.7782Z" fill="#41484D"/>
<path d="M19.4556 20.6453H27.9515V17.6716H19.4556V20.6453ZM22.854 18.7337H24.5532C24.7878 18.7337 24.978 18.9238 24.978 19.1585C24.978 19.3931 24.7878 19.5833 24.5532 19.5833H22.854C22.6194 19.5833 22.4292 19.3931 22.4292 19.1585C22.4292 18.9238 22.6194 18.7337 22.854 18.7337Z" fill="#41484D"/>
<path d="M19.4556 24.3272H27.9515V21.4951H19.4556V24.3272ZM22.854 22.4863H24.5532C24.7878 22.4863 24.978 22.6765 24.978 22.9112C24.978 23.1458 24.7878 23.336 24.5532 23.336H22.854C22.6194 23.336 22.4292 23.1458 22.4292 22.9112C22.4292 22.6765 22.6194 22.4863 22.854 22.4863Z" fill="#41484D"/>
<path d="M19.4556 28.9998H27.5269C27.6396 28.9998 27.7476 28.955 27.8273 28.8754C27.907 28.7956 27.9517 28.6876 27.9517 28.5749V25.1765H19.4557L19.4556 28.9998ZM22.854 26.2385H24.5532C24.7878 26.2385 24.978 26.4287 24.978 26.6633C24.978 26.898 24.7878 27.0881 24.5532 27.0881H22.854C22.6194 27.0881 22.4292 26.898 22.4292 26.6633C22.4292 26.4287 22.6194 26.2385 22.854 26.2385Z" fill="#41484D"/>
<path d="M28.575 15.1228H0.424803C0.190152 15.1228 0 15.313 0 15.5476V16.822H29V15.5476C29 15.4349 28.9553 15.3269 28.8756 15.2472C28.7959 15.1675 28.6879 15.1228 28.5752 15.1228H28.575Z" fill="#41484D"/>
<path d="M15.6326 13.4238H13.367C13.1842 13.424 13.0219 13.541 12.9637 13.7143L12.7773 14.2734H16.2223L16.036 13.7143C15.9777 13.541 15.8155 13.424 15.6326 13.4238H15.6326Z" fill="#41484D"/>
<path d="M9.96826 0.849363H19.0308C19.2654 0.849363 19.4556 0.659211 19.4556 0.424559C19.4556 0.189908 19.2654 -0.000244141 19.0308 -0.000244141H9.96826C9.73361 -0.000244141 9.54346 0.189908 9.54346 0.424559C9.54346 0.659211 9.73361 0.849363 9.96826 0.849363Z" fill="#41484D"/>
<path d="M12.375 1.69897H16.623V4.53103H12.375V1.69897Z" fill="#41484D"/>
<path d="M9.79199 7.36327H19.2066L17.2242 5.38086H11.7743L9.79199 7.36327Z" fill="#41484D"/>
<path d="M9.96846 10.478H19.031C19.1436 10.478 19.2517 10.4333 19.3314 10.3536C19.4111 10.2739 19.4558 10.1659 19.4558 10.0532V8.2124H9.54346V10.0532C9.54346 10.2879 9.73361 10.478 9.96826 10.478H9.96846Z" fill="#41484D"/>
</svg>
