<svg width="25" height="25" viewBox="0 0 25 25" fill="none" xmlns="http://www.w3.org/2000/svg">
<path fill-rule="evenodd" clip-rule="evenodd" d="M20.3707 13.889V24.7729C20.3707 24.9004 20.266 25 20.137 25H19.6784C19.5437 25 19.4447 24.8943 19.4447 24.764V20.8333H14.8152V24.764C14.8152 24.8946 14.7106 25 14.5815 25H14.1229C13.9885 25 13.8892 24.8983 13.8892 24.7729V13.889C13.8892 13.6333 14.0966 13.4261 14.3522 13.4261H19.908C20.1637 13.4261 20.371 13.6333 20.371 13.889H20.3707ZM14.8148 18.0558V19.9076H19.4443V18.0558H14.8148ZM11.1112 13.889V24.7729C11.1112 24.9004 11.0066 25 10.8775 25H10.4189C10.2843 25 10.1852 24.8943 10.1852 24.764V20.8333H5.55575V24.764C5.55575 24.8946 5.45112 25 5.32207 25H4.86345C4.72883 25 4.62977 24.8983 4.62977 24.7729V13.889C4.62977 13.6333 4.83712 13.4261 5.09277 13.4261H10.6486C10.9042 13.4261 11.1116 13.6333 11.1116 13.889H11.1112ZM5.55538 18.0558V19.9076H10.1849V18.0558H5.55538ZM13.1987 16.6668C13.3243 16.6668 13.4259 16.5677 13.4259 16.4331V15.9746C13.4259 15.8456 13.3264 15.7409 13.1987 15.7409H11.8012C11.6756 15.7409 11.5739 15.84 11.5739 15.9746V16.4331C11.5739 16.5621 11.6735 16.6668 11.8012 16.6668H13.1987ZM21.067 16.6668C20.938 16.6668 20.8334 16.5677 20.8334 16.4331V15.9746C20.8334 15.8456 20.9363 15.7409 21.0693 15.7409H24.7641C24.8943 15.7409 25 15.84 25 15.9746V16.4331C25 16.5621 24.9006 16.6668 24.7696 16.6668H22.6852V24.7686C22.6852 24.8964 22.5862 25.0002 22.4515 25.0002H21.9929C21.8639 25.0002 21.7592 24.8948 21.7592 24.7686V16.6668H21.067ZM0.230367 16.6668C0.103237 16.6668 0 16.5677 0 16.4331V15.9746C0 15.8456 0.103063 15.7409 0.235947 15.7409H3.93069C4.06113 15.7409 4.16664 15.84 4.16664 15.9746V16.4331C4.16664 16.5621 4.06758 16.6668 3.93296 16.6668H3.24081V24.7686C3.24081 24.8964 3.14159 25.0002 3.00713 25.0002H2.54852C2.41947 25.0002 2.31484 24.8948 2.31484 24.7686V16.6668H0.230367ZM12.963 0.232804C12.963 0.104282 12.8639 0 12.7293 0H12.2707C12.1417 0 12.037 0.10742 12.037 0.232804V3.72157C10.1022 3.86997 8.33339 4.9196 8.33339 6.01858C8.33339 7.14059 9.65192 6.94439 12.5 6.94439C15.3481 6.94439 16.6666 7.14057 16.6666 6.01858C16.6666 4.9196 14.8978 3.86996 12.963 3.72157L12.963 0.232804Z" fill="#41484D"/>
</svg>
