<svg width="28" height="26" viewBox="0 0 28 26" fill="none" xmlns="http://www.w3.org/2000/svg">
<path d="M5.73987 25.9669C5.60799 25.9669 5.47699 25.927 5.36661 25.8488C5.17089 25.7105 5.0727 25.4759 5.11371 25.2441L6.63492 16.6166L0.191797 10.5069C0.0186864 10.3428 -0.0435943 10.097 0.0311017 9.87332C0.105798 9.64949 0.304618 9.48669 0.544225 9.45262L9.44828 8.19374L13.4305 0.344581C13.5371 0.133478 13.7583 0 14.0001 0C14.2419 0 14.4627 0.133478 14.5702 0.344581L18.5519 8.19374L27.456 9.45262C27.6954 9.48626 27.8942 9.64949 27.9689 9.87332C28.0436 10.0971 27.9813 10.343 27.8082 10.507L21.3656 16.6168L22.8864 25.2443C22.9272 25.4761 22.829 25.7107 22.6335 25.8489C22.4378 25.9874 22.1782 26.0053 21.9643 25.8959L14.0005 21.8224L6.03669 25.8962C5.94382 25.9434 5.84208 25.9669 5.74079 25.9669L5.73987 25.9669Z" fill="#41484D"/>
</svg>
