<svg width="21" height="21" viewBox="0 0 21 21" fill="none" xmlns="http://www.w3.org/2000/svg">
<path d="M2.35853 6.76715H5.74885L5.56751 7.11578H9.81394L9.6326 6.76715H13.0225C13.3214 6.76686 13.6083 6.64792 13.8196 6.4364C14.0312 6.22502 14.1501 5.93822 14.1504 5.63923V1.12768C14.1501 0.828703 14.0312 0.541897 13.8196 0.330512C13.6083 0.118993 13.3215 4.8355e-05 13.0225 -0.000244141H2.35838C2.05941 0.000195315 1.77276 0.119139 1.56137 0.330658C1.34985 0.542032 1.23091 0.828689 1.23047 1.12767V5.63923C1.23091 5.9382 1.34985 6.22486 1.56137 6.43624C1.77274 6.64776 2.0594 6.76671 2.35838 6.76715L2.35853 6.76715Z" fill="#41484D"/>
<path d="M20.6924 7.73096H0.3081C0.138183 7.73096 0.000488281 7.86865 0.000488281 8.03857V10.1919H21.0002V8.03857C21.0002 7.95698 20.9678 7.87876 20.9101 7.82104C20.8524 7.76333 20.7742 7.73096 20.6926 7.73096H20.6924Z" fill="#41484D"/>
<path d="M10.1924 20.6921C10.1924 20.8621 10.3301 20.9998 10.5 20.9998H11.7305C11.812 20.9998 11.8903 20.9674 11.948 20.9097C12.0057 20.852 12.0381 20.7737 12.0381 20.6921V10.9307H10.1924L10.1924 20.6921Z" fill="#41484D"/>
<path d="M3.00403e-05 20.6921C3.00403e-05 20.8621 0.137724 20.9998 0.307642 20.9998H1.53807C1.61966 20.9998 1.69788 20.9674 1.7556 20.9097C1.81332 20.852 1.84569 20.7737 1.84569 20.6921V10.9307H0L3.00403e-05 20.6921Z" fill="#41484D"/>
<path d="M19.1538 20.6921C19.1538 20.8621 19.2915 20.9998 19.4615 20.9998H20.6919C20.7735 20.9998 20.8517 20.9674 20.9094 20.9097C20.9671 20.852 20.9995 20.7737 20.9995 20.6921V10.9307H19.1538L19.1538 20.6921Z" fill="#41484D"/>
<path d="M2.46045 17.356H9.57672V19.2016H2.46045V17.356Z" fill="#41484D"/>
<path d="M14.6699 17.0312H16.5222V17.6465H14.6699V17.0312Z" fill="#41484D"/>
<path d="M14.6699 12.417H16.5222V13.0322H14.6699V12.417Z" fill="#41484D"/>
<path d="M12.6528 19.3381H18.5384V15.3391H12.6528V19.3381ZM14.0544 16.7233C14.0544 16.5534 14.1921 16.4157 14.362 16.4157H16.8295H16.8293C16.9109 16.4157 16.9892 16.4481 17.0469 16.5058C17.1046 16.5635 17.137 16.6417 17.137 16.7233V17.9538C17.137 18.0354 17.1046 18.1136 17.0469 18.1713C16.9892 18.229 16.9109 18.2614 16.8293 18.2614H14.362C14.1921 18.2614 14.0544 18.1237 14.0544 17.9538L14.0544 16.7233Z" fill="#41484D"/>
<path d="M12.6528 14.7245H18.5384V10.9307H12.6528V14.7245ZM14.0544 12.1098C14.0544 11.9398 14.1921 11.8021 14.362 11.8021H16.8295H16.8293C16.9109 11.8021 16.9892 11.8345 17.0469 11.8922C17.1046 11.9499 17.137 12.0282 17.137 12.1098V13.3402C17.137 13.4218 17.1046 13.5 17.0469 13.5577C16.9892 13.6154 16.9109 13.6478 16.8293 13.6478H14.362C14.1921 13.6478 14.0544 13.5101 14.0544 13.3402L14.0544 12.1098Z" fill="#41484D"/>
<path d="M17.1994 5.68018C16.8095 5.68062 16.4342 5.82915 16.1493 6.09559C15.8645 6.36205 15.6916 6.72664 15.665 7.11569H18.7334C18.707 6.72664 18.534 6.36203 18.2493 6.09559C17.9647 5.82929 17.5894 5.68078 17.1994 5.68018Z" fill="#41484D"/>
</svg>
