<svg width="42" height="22" viewBox="0 0 42 22" fill="none" xmlns="http://www.w3.org/2000/svg">
<path d="M16.6494 12.3367H2.16328C0.972091 12.3367 0 13.3088 0 14.4999V19.3058H18.8124V14.4999C18.8124 13.2951 17.854 12.3367 16.6491 12.3367H16.6494Z" fill="#41484D"/>
<path d="M1.83389 21.1409C1.86127 21.2641 1.95711 21.3599 2.09403 21.3599H2.76493C2.88816 21.3599 2.99769 21.2641 3.02507 21.1409L3.25783 19.6484H1.5874L1.83389 21.1409Z" fill="#41484D"/>
<path d="M15.7592 21.1409C15.7866 21.2641 15.8824 21.3599 16.0193 21.3599H16.6902C16.8134 21.3599 16.9367 21.2641 16.9504 21.1409L17.1831 19.6484H15.5127L15.7592 21.1409Z" fill="#41484D"/>
<path d="M11.2404 10.5291H7.58466C6.79053 10.5291 6.1333 11.1726 6.1333 11.9804H12.6917C12.6917 11.1863 12.0345 10.5291 11.2404 10.5291Z" fill="#41484D"/>
<path d="M5.71001 11.8847V11.7752C5.71001 11.0359 6.31244 10.1596 7.05183 10.1596H11.7344C12.4738 10.1596 13.0762 11.0359 13.0762 11.7752V11.8847H16.9784C17.3892 11.8847 17.7588 12.0217 18.0601 12.2544V6.83252H0.726074V12.2544C1.02729 12.0353 1.39698 11.8847 1.80772 11.8847H5.71001Z" fill="#41484D"/>
<path d="M31.6548 21.6615H36.1868V0.0012207H31.6548V21.6615ZM34.6807 8.18939C34.6807 8.06616 34.7765 7.98402 34.8861 7.98402C34.9956 7.98402 35.0914 8.07986 35.0914 8.18939V11.3795C35.0914 11.5028 34.9956 11.5849 34.8861 11.5849C34.7765 11.5849 34.6807 11.4891 34.6807 11.3795V8.18939Z" fill="#41484D"/>
<path d="M19.2095 13.5561H31.2583V10.5439H19.2095V13.5561ZM23.6593 11.872H26.8358C26.9591 11.872 27.0412 11.9678 27.0412 12.0774C27.0412 12.1869 26.959 12.2828 26.8358 12.2828H23.6593C23.5361 12.2828 23.4539 12.1869 23.4539 12.0774C23.4539 11.9542 23.5498 11.872 23.6593 11.872Z" fill="#41484D"/>
<path d="M19.2095 21.3737H31.2583V13.8433H19.2095V21.3737ZM23.6593 15.4452H26.8358C26.9591 15.4452 27.0412 15.5411 27.0412 15.6506C27.0412 15.7601 26.959 15.856 26.8358 15.856H23.6593C23.5361 15.856 23.4539 15.7601 23.4539 15.6506C23.4539 15.5411 23.5498 15.4452 23.6593 15.4452Z" fill="#41484D"/>
<path d="M36.5435 0V21.6603H41.0754V0H36.5435ZM37.9948 11.3779C37.9948 11.5012 37.899 11.5833 37.7894 11.5833C37.6662 11.5833 37.5841 11.4875 37.5841 11.3779V8.20144C37.5841 8.07822 37.6799 7.99607 37.7894 7.99607C37.9127 7.99607 37.9948 8.09191 37.9948 8.20144V11.3779Z" fill="#41484D"/>
<path d="M24.3704 7.58604C23.8501 8.01048 23.6584 8.70877 23.9049 9.31117C24.1376 9.94099 24.7949 10.3517 25.4658 10.2422C26.0545 10.1601 26.479 9.69454 26.6296 9.20164C26.8076 8.62657 26.6296 7.99676 26.1641 7.57227C25.5753 7.58596 24.9729 7.58596 24.3704 7.58596L24.3704 7.58604Z" fill="#41484D"/>
<path d="M26.8904 3.60156H23.6044L22.6597 7.17514H27.8352L26.8904 3.60156Z" fill="#41484D"/>
</svg>
