<svg width="27" height="18" viewBox="0 0 27 18" fill="none" xmlns="http://www.w3.org/2000/svg">
<path d="M24.9545 10.3651V11.1831C24.9545 12.2204 24.1099 13.065 23.0726 13.065L13.4999 13.0652H3.92731C2.89001 13.0652 2.04541 12.2206 2.04541 11.1833V10.3653C2.04541 9.32797 2.89001 8.48336 3.92731 8.48336L13.4999 8.48315H23.0726C24.1099 8.48315 24.9545 9.32733 24.9545 10.3651Z" fill="#41484D"/>
<path d="M26.9998 7.33769C26.9998 8.21154 26.5091 9.00027 25.7691 9.40918C25.3732 8.29988 24.316 7.50114 23.0723 7.50114H22.2637C22.2604 7.44568 22.2539 7.39316 22.2539 7.3377C22.2539 6.02853 23.3174 4.96509 24.6265 4.96509C25.9363 4.96488 26.9998 6.02858 26.9998 7.3377L26.9998 7.33769Z" fill="#41484D"/>
<path d="M23.3736 3.43674V4.22879C22.1429 4.72621 21.2724 5.93075 21.2724 7.33801C21.2724 7.39347 21.2791 7.44599 21.2822 7.50144H14.5912C14.1691 7.50144 13.8271 7.15951 13.8271 6.73741V0.764764C13.8271 0.342683 14.1691 0.000732507 14.5912 0.000732507H19.9372C21.835 0.000313956 23.3737 1.53903 23.3737 3.43684L23.3736 3.43674Z" fill="#41484D"/>
<path d="M4.74547 7.33771C4.74547 7.39317 4.73877 7.44569 4.73564 7.50115H3.92703C2.68359 7.50115 1.62642 8.29968 1.23026 9.40919C0.490712 8.99987 0 8.21118 0 7.3377C0 6.02853 1.06349 4.96509 2.37261 4.96509C3.68195 4.96488 4.74544 6.02858 4.74544 7.3377L4.74547 7.33771Z" fill="#41484D"/>
<path d="M13.1729 0.764503V6.73715C13.1729 7.15923 12.831 7.50118 12.4089 7.50118H5.71785C5.7212 7.44573 5.72769 7.3932 5.72769 7.33775C5.72769 5.93043 4.85715 4.72637 3.62646 4.22853V3.43648C3.62646 1.53867 5.16498 0 7.06295 0H12.409C12.8311 0 13.173 0.342352 13.173 0.76446L13.1729 0.764503Z" fill="#41484D"/>
<path d="M23.8503 13.7603H3.15036C2.49786 13.7603 1.96387 14.2943 1.96387 14.9467C1.96387 15.5992 2.49791 16.1332 3.15036 16.1332H3.88091V17.1821C3.88091 17.4533 4.10043 17.6728 4.37163 17.6728C4.64284 17.6728 4.86236 17.4533 4.86236 17.1821V16.1332H21.9623V17.1821C21.9623 17.4533 22.1818 17.6728 22.453 17.6728C22.7242 17.6728 22.9437 17.4533 22.9437 17.1821V16.1332H23.8496C24.5021 16.1332 25.0361 15.5992 25.0361 14.9467C25.0365 14.294 24.5027 13.7603 23.8502 13.7603H23.8503Z" fill="#41484D"/>
</svg>
